<?xml version="1.0" encoding="iso-8859-1"?>
<!-- Generator: Adobe Illustrator 19.0.0, SVG Export Plug-In . SVG Version: 6.00 Build 0)  -->
<svg version="1.1" id="Capa_1" xmlns="http://www.w3.org/2000/svg" xmlns:xlink="http://www.w3.org/1999/xlink" x="0px" y="0px"
	 viewBox="0 0 496 496" style="enable-background:new 0 0 496 496;" xml:space="preserve">
<g>
	<g>
		<g>
			<path d="M424.504,411.608c-11.152-35.696-42.24-62.432-79.192-68.12L304,337.136v-8.288c26.92-15.624,46.784-42.072,53.488-73.4
				C376.928,252.736,392,236.176,392,216v-72C392,64.6,327.4,0,248,0S104,64.6,104,144v72c0,20.176,15.072,36.736,34.512,39.448
				c6.704,31.328,26.568,57.776,53.488,73.4v8.288l-41.312,6.36c-36.952,5.688-68.048,32.424-79.192,68.12L45.12,496h405.76
				L424.504,411.608z M359.664,238.632C359.792,236.424,360,234.24,360,232v-38.528c9.288,3.312,16,12.112,16,22.528
				C376,226.536,369.128,235.416,359.664,238.632z M120,216c0-10.416,6.712-19.216,16-22.528V232c0,2.24,0.208,4.424,0.336,6.632
				C126.872,235.416,120,226.536,120,216z M136,157.584v19.224c-5.944,1.216-11.328,3.856-16,7.392V144c0-70.576,57.424-128,128-128
				s128,57.424,128,128v40.208c-4.672-3.536-10.056-6.184-16-7.392v-19.232c0-7.48-3.376-14.392-9.264-18.976
				c-5.848-4.536-13.32-6.12-20.536-4.296C312.76,138.728,284.336,144,248,144s-64.76-5.272-82.192-9.696
				c-7.208-1.8-14.68-0.248-20.536,4.296C139.376,143.184,136,150.104,136,157.584z M152,232v-74.416
				c0-2.504,1.128-4.832,3.096-6.352c1.4-1.096,3.088-1.664,4.816-1.664c0.656,0,1.312,0.08,1.96,0.248
				C180.192,154.464,210.016,160,248,160s67.808-5.536,86.136-10.176c2.352-0.616,4.84-0.104,6.776,1.416
				c1.96,1.52,3.088,3.832,3.088,6.336V232c0,52.936-43.064,96-96,96C195.064,328,152,284.936,152,232z M128.936,480H66.88
				l19.88-63.624c9.352-29.896,35.4-52.304,66.368-57.072l54.872-8.44v-14.376c12.44,4.784,25.896,7.512,40,7.512
				s27.56-2.728,40-7.512v3.808c-35.704,30-76.224,52.68-120.496,67.44l-30.816,10.272L128.936,480z M359.936,423.008l-15.872,1.984
				L350.936,480H145.064l6.248-50.008l21.248-7.088c46.208-15.4,88.472-39.136,125.736-70.456l17.728,2.728
				c-3.296,4.632-6.688,9.208-10.24,13.6l12.44,10.064c5.44-6.72,10.624-13.784,15.432-20.952l9.216,1.416
				c2.608,0.4,5.128,1.104,7.656,1.752l-10.512,21.032c-7.032,14.056-16.224,26.816-27.336,37.92
				c-8.08,8.072-17.104,15.192-26.84,21.168l8.376,13.64c10.808-6.632,20.824-14.536,29.784-23.504
				c12.328-12.328,22.528-26.488,30.336-42.08l11.4-22.808c20.464,9.8,36.584,27.792,43.512,49.944L429.12,480h-62.056
				L359.936,423.008z"/>
			<path d="M309.32,389.32l-11.952-10.64c-15.656,17.6-33.536,33.152-53.16,46.224c-15.904,10.6-32.952,19.576-50.696,26.664
				l-12.496,5l5.952,14.856l12.488-5c18.76-7.504,36.808-16.992,53.624-28.208C273.832,424.384,292.752,407.936,309.32,389.32z"/>
			<path d="M263.696,452.304l-10.664,4.264l5.936,14.856l10.656-4.264c3.056-1.216,6.064-2.528,9.024-3.928l-6.832-14.472
				C269.16,450.024,266.448,451.208,263.696,452.304z"/>
			<rect x="176" y="200" width="32" height="16"/>
			<rect x="288" y="200" width="32" height="16"/>
			<path d="M288,264h-16c0,13.232-10.768,24-24,24s-24-10.768-24-24h-16c0,22.056,17.944,40,40,40C270.056,304,288,286.056,288,264z
				"/>
		</g>
	</g>
</g>
<g>
</g>
<g>
</g>
<g>
</g>
<g>
</g>
<g>
</g>
<g>
</g>
<g>
</g>
<g>
</g>
<g>
</g>
<g>
</g>
<g>
</g>
<g>
</g>
<g>
</g>
<g>
</g>
<g>
</g>
</svg>
